<svg id="visual" viewBox="0 0 960 540" width="960" height="540" xmlns="http://www.w3.org/2000/svg" xmlns:xlink="http://www.w3.org/1999/xlink" version="1.1"><rect x="0" y="0" width="960" height="540" fill="#001220"></rect><path d="M0 316L22.8 318.8C45.7 321.7 91.3 327.3 137 340.3C182.7 353.3 228.3 373.7 274 383.5C319.7 393.3 365.3 392.7 411.2 391.7C457 390.7 503 389.3 548.8 381.3C594.7 373.3 640.3 358.7 686 355.7C731.7 352.7 777.3 361.3 823 357.2C868.7 353 914.3 336 937.2 327.5L960 319L960 541L937.2 541C914.3 541 868.7 541 823 541C777.3 541 731.7 541 686 541C640.3 541 594.7 541 548.8 541C503 541 457 541 411.2 541C365.3 541 319.7 541 274 541C228.3 541 182.7 541 137 541C91.3 541 45.7 541 22.8 541L0 541Z" fill="#fa7268"></path><path d="M0 359L22.8 366.8C45.7 374.7 91.3 390.3 137 398.5C182.7 406.7 228.3 407.3 274 405.3C319.7 403.3 365.3 398.7 411.2 398.8C457 399 503 404 548.8 398.7C594.7 393.3 640.3 377.7 686 376.3C731.7 375 777.3 388 823 395.2C868.7 402.3 914.3 403.7 937.2 404.3L960 405L960 541L937.2 541C914.3 541 868.7 541 823 541C777.3 541 731.7 541 686 541C640.3 541 594.7 541 548.8 541C503 541 457 541 411.2 541C365.3 541 319.7 541 274 541C228.3 541 182.7 541 137 541C91.3 541 45.7 541 22.8 541L0 541Z" fill="#ef5f67"></path><path d="M0 404L22.8 412.5C45.7 421 91.3 438 137 440.7C182.7 443.3 228.3 431.7 274 425.7C319.7 419.7 365.3 419.3 411.2 421.5C457 423.7 503 428.3 548.8 433C594.7 437.7 640.3 442.3 686 442.2C731.7 442 777.3 437 823 428.8C868.7 420.7 914.3 409.3 937.2 403.7L960 398L960 541L937.2 541C914.3 541 868.7 541 823 541C777.3 541 731.7 541 686 541C640.3 541 594.7 541 548.8 541C503 541 457 541 411.2 541C365.3 541 319.7 541 274 541C228.3 541 182.7 541 137 541C91.3 541 45.7 541 22.8 541L0 541Z" fill="#e34c67"></path><path d="M0 477L22.8 473.7C45.7 470.3 91.3 463.7 137 461.3C182.7 459 228.3 461 274 457.7C319.7 454.3 365.3 445.7 411.2 444.2C457 442.7 503 448.3 548.8 450.2C594.7 452 640.3 450 686 451.5C731.7 453 777.3 458 823 463.8C868.7 469.7 914.3 476.3 937.2 479.7L960 483L960 541L937.2 541C914.3 541 868.7 541 823 541C777.3 541 731.7 541 686 541C640.3 541 594.7 541 548.8 541C503 541 457 541 411.2 541C365.3 541 319.7 541 274 541C228.3 541 182.7 541 137 541C91.3 541 45.7 541 22.8 541L0 541Z" fill="#d53867"></path><path d="M0 478L22.8 479.5C45.7 481 91.3 484 137 486.3C182.7 488.7 228.3 490.3 274 490.5C319.7 490.7 365.3 489.3 411.2 486.8C457 484.3 503 480.7 548.8 482.3C594.7 484 640.3 491 686 492.2C731.7 493.3 777.3 488.7 823 484.5C868.7 480.3 914.3 476.7 937.2 474.8L960 473L960 541L937.2 541C914.3 541 868.7 541 823 541C777.3 541 731.7 541 686 541C640.3 541 594.7 541 548.8 541C503 541 457 541 411.2 541C365.3 541 319.7 541 274 541C228.3 541 182.7 541 137 541C91.3 541 45.7 541 22.8 541L0 541Z" fill="#c62368"></path></svg>